<?xml version="1.0" standalone="no"?>
<!DOCTYPE svg PUBLIC "-//W3C//DTD SVG 20010904//EN"
 "http://www.w3.org/TR/2001/REC-SVG-20010904/DTD/svg10.dtd">
<svg version="1.0" xmlns="http://www.w3.org/2000/svg"
 width="600.000000pt" height="600.000000pt" viewBox="0 0 600.000000 600.000000"
 preserveAspectRatio="xMidYMid meet">

<g transform="translate(0.000000,600.000000) scale(0.100000,-0.100000)"
fill="#000000" stroke="none">
<path d="M1755 4458 c-3 -7 -171 -472 -374 -1033 -203 -561 -373 -1028 -376
-1037 -7 -17 3 -18 131 -18 l139 0 104 300 104 300 411 0 411 0 105 -300 104
-300 138 0 137 0 -35 98 c-19 53 -189 525 -378 1047 l-343 950 -137 3 c-104 2
-138 0 -141 -10z m306 -793 c83 -237 154 -436 156 -442 4 -10 -64 -13 -321
-13 -179 0 -326 2 -326 4 0 3 66 189 146 413 81 224 153 428 162 452 10 30 17
39 23 30 4 -8 76 -208 160 -444z"/>
<path d="M3404 4396 c-3 -8 -3 -344 -1 -747 4 -814 3 -798 72 -944 91 -191
325 -345 586 -386 114 -18 295 -6 404 26 225 66 391 198 475 376 57 124 60
167 60 966 l0 724 -127 -3 -128 -3 -5 -750 c-4 -504 -9 -760 -16 -780 -38
-105 -133 -215 -231 -268 -74 -40 -192 -67 -287 -67 -168 1 -295 49 -403 153
-79 76 -119 154 -133 257 -5 42 -10 383 -10 768 l0 692 -125 0 c-98 0 -127 -3
-131 -14z"/>
<path d="M1000 1655 l0 -125 2000 0 2000 0 0 125 0 125 -2000 0 -2000 0 0
-125z"/>
</g>
</svg>
