<svg id="svg" version="1.1" xmlns="http://www.w3.org/2000/svg" xmlns:xlink="http://www.w3.org/1999/xlink" width="400" height="400" viewBox="0, 0, 400,400"><g id="svgg"><path id="path0" d="M116.789 104.225 C 116.355 105.238,116.000 106.249,116.000 106.473 C 116.000 106.696,115.747 107.446,115.439 108.140 C 114.915 109.315,114.473 110.515,111.765 118.100 C 111.195 119.695,110.115 122.629,109.365 124.620 C 108.614 126.611,108.000 128.384,108.000 128.559 C 108.000 128.735,107.747 129.446,107.438 130.140 C 107.128 130.833,106.569 132.300,106.195 133.400 C 105.821 134.500,105.369 135.760,105.190 136.200 C 105.011 136.640,104.400 138.305,103.832 139.900 C 102.754 142.930,101.513 146.407,99.763 151.300 C 98.185 155.713,95.554 162.901,95.188 163.800 C 95.009 164.240,94.559 165.500,94.189 166.600 C 93.818 167.700,93.369 168.960,93.190 169.400 C 92.875 170.173,91.928 172.809,89.775 178.900 C 89.211 180.495,88.581 182.113,88.375 182.495 C 88.169 182.877,88.000 183.389,88.000 183.634 C 88.000 183.879,87.742 184.646,87.427 185.340 C 87.112 186.033,86.563 187.500,86.208 188.600 C 85.853 189.700,84.957 192.220,84.217 194.200 C 83.476 196.180,82.416 199.060,81.860 200.600 C 78.166 210.837,76.423 215.627,75.091 219.200 C 74.968 219.530,74.563 220.700,74.191 221.800 C 73.819 222.900,73.369 224.160,73.190 224.600 C 73.011 225.040,72.400 226.705,71.832 228.300 C 71.264 229.895,70.336 232.505,69.768 234.100 C 69.200 235.695,68.585 237.360,68.401 237.800 C 67.918 238.952,67.200 241.261,67.200 241.660 C 67.200 241.847,71.048 242.000,75.751 242.000 C 84.688 242.000,84.810 241.977,85.309 240.200 C 85.487 239.567,87.720 233.238,88.909 230.000 C 89.030 229.670,89.676 227.780,90.343 225.800 C 91.011 223.820,92.474 219.590,93.595 216.400 C 94.715 213.210,96.290 208.665,97.094 206.300 L 98.557 202.000 126.230 202.000 L 153.903 202.000 154.331 203.100 C 154.567 203.705,155.230 205.640,155.805 207.400 C 156.379 209.160,157.006 210.960,157.196 211.400 C 157.387 211.840,157.907 213.280,158.351 214.600 C 158.796 215.920,160.075 219.610,161.193 222.800 C 162.311 225.990,163.848 230.400,164.608 232.600 C 165.368 234.800,166.414 237.770,166.932 239.200 L 167.875 241.800 176.537 241.908 C 186.505 242.032,185.849 242.374,184.200 237.908 C 183.650 236.419,182.750 233.940,182.200 232.400 C 181.650 230.860,180.750 228.340,180.200 226.800 C 179.650 225.260,178.736 222.695,178.168 221.100 C 177.600 219.505,176.974 217.840,176.777 217.400 C 176.580 216.960,176.135 215.700,175.789 214.600 C 175.443 213.500,175.009 212.240,174.824 211.800 C 174.639 211.360,173.908 209.380,173.200 207.400 C 172.492 205.420,171.766 203.440,171.587 203.000 C 171.408 202.560,170.959 201.300,170.589 200.200 C 170.218 199.100,169.769 197.840,169.590 197.400 C 169.411 196.960,168.800 195.295,168.232 193.700 C 167.664 192.105,166.750 189.540,166.200 188.000 C 165.650 186.460,164.736 183.895,164.168 182.300 C 163.600 180.705,162.974 179.040,162.777 178.600 C 162.580 178.160,162.134 176.900,161.786 175.800 C 161.438 174.700,161.049 173.530,160.920 173.200 C 160.234 171.443,158.732 167.319,157.422 163.600 C 156.608 161.290,155.790 159.040,155.603 158.600 C 155.417 158.160,154.800 156.495,154.232 154.900 C 153.664 153.305,152.736 150.695,152.168 149.100 C 151.600 147.505,150.983 145.840,150.797 145.400 C 150.610 144.960,150.069 143.430,149.595 142.000 C 149.120 140.570,148.197 137.960,147.542 136.200 C 146.887 134.440,145.799 131.470,145.124 129.600 C 144.449 127.730,143.306 124.580,142.584 122.600 C 141.355 119.232,140.810 117.713,138.166 110.300 C 137.597 108.705,137.028 107.130,136.901 106.800 C 136.774 106.470,136.385 105.390,136.035 104.400 L 135.400 102.600 126.489 102.492 L 117.578 102.385 116.789 104.225 M227.475 106.659 C 227.042 107.091,227.163 197.184,227.603 202.600 C 228.351 211.801,230.896 219.423,235.173 225.270 C 239.913 231.749,251.699 240.180,258.800 242.170 C 259.350 242.324,260.160 242.598,260.600 242.780 C 265.808 244.923,277.989 246.355,284.943 245.641 C 298.364 244.263,305.854 241.577,316.000 234.504 C 322.001 230.321,327.853 222.708,330.069 216.200 C 333.131 207.209,333.200 205.795,333.200 152.357 L 333.200 106.400 325.000 106.400 L 316.800 106.400 316.795 149.700 C 316.789 203.558,316.650 205.936,313.093 213.200 C 311.953 215.528,306.104 222.021,303.066 224.331 C 293.799 231.377,276.373 233.088,264.400 228.126 C 261.782 227.041,261.002 226.631,258.400 224.972 C 252.574 221.256,247.284 214.873,245.661 209.600 C 245.424 208.830,245.000 207.570,244.718 206.800 C 244.317 205.702,244.162 194.737,244.003 156.000 L 243.800 106.600 235.775 106.492 C 231.361 106.433,227.626 106.508,227.475 106.659 M126.912 125.500 C 127.026 125.885,127.873 128.270,128.796 130.800 C 129.719 133.330,130.621 135.850,130.800 136.400 C 130.979 136.950,131.879 139.470,132.800 142.000 C 133.721 144.530,134.623 147.050,134.804 147.600 C 134.985 148.150,136.064 151.210,137.202 154.400 C 139.702 161.412,140.962 165.017,142.026 168.200 C 142.467 169.520,142.997 170.960,143.205 171.400 C 143.412 171.840,143.865 173.100,144.211 174.200 C 144.557 175.300,144.996 176.560,145.186 177.000 C 145.376 177.440,145.854 178.790,146.249 180.000 C 146.643 181.210,147.108 182.398,147.282 182.640 C 147.456 182.883,147.714 183.918,147.854 184.940 L 148.109 186.800 126.442 186.800 C 107.936 186.800,104.743 186.716,104.553 186.223 C 104.366 185.733,105.678 181.283,106.801 178.600 C 106.985 178.160,107.600 176.495,108.168 174.900 C 108.736 173.305,109.650 170.740,110.200 169.200 C 110.750 167.660,111.650 165.140,112.200 163.600 C 112.750 162.060,113.650 159.540,114.200 158.000 C 114.750 156.460,115.650 153.940,116.200 152.400 C 116.750 150.860,117.650 148.340,118.200 146.800 C 118.750 145.260,119.650 142.740,120.200 141.200 C 120.750 139.660,121.650 137.140,122.200 135.600 C 122.750 134.060,123.665 131.495,124.233 129.900 C 125.896 125.236,126.081 124.800,126.402 124.800 C 126.570 124.800,126.799 125.115,126.912 125.500 M66.800 289.800 L 66.800 297.600 200.000 297.600 L 333.200 297.600 333.200 289.800 L 333.200 282.000 200.000 282.000 L 66.800 282.000 66.800 289.800 " stroke="none" fill="#050505" fill-rule="evenodd"></path><path id="path1" d="M0.000 200.000 L 0.000 400.000 200.000 400.000 L 400.000 400.000 400.000 200.000 L 400.000 0.000 200.000 0.000 L 0.000 0.000 0.000 200.000 M136.408 104.000 C 136.772 104.990,137.203 106.160,137.366 106.600 C 138.538 109.749,140.844 116.143,141.406 117.800 C 141.779 118.900,142.231 120.160,142.410 120.600 C 142.589 121.040,143.200 122.705,143.768 124.300 C 144.336 125.895,145.250 128.460,145.800 130.000 C 146.350 131.540,147.264 134.105,147.832 135.700 C 148.400 137.295,149.011 138.960,149.190 139.400 C 149.369 139.840,149.819 141.100,150.191 142.200 C 150.563 143.300,150.968 144.470,151.091 144.800 C 152.066 147.415,153.369 150.979,154.969 155.400 C 158.727 165.789,159.243 167.226,161.832 174.500 C 162.400 176.095,163.011 177.760,163.190 178.200 C 163.369 178.640,163.818 179.900,164.189 181.000 C 164.559 182.100,165.009 183.360,165.189 183.800 C 165.368 184.240,165.821 185.500,166.195 186.600 C 166.569 187.700,167.128 189.167,167.438 189.860 C 167.747 190.554,168.000 191.265,168.000 191.441 C 168.000 191.616,168.614 193.389,169.365 195.380 C 170.115 197.371,171.195 200.305,171.765 201.900 C 172.334 203.495,173.250 206.060,173.800 207.600 C 174.350 209.140,175.264 211.705,175.832 213.300 C 176.400 214.895,177.014 216.560,177.196 217.000 C 178.022 218.988,180.800 226.802,180.800 227.136 C 180.800 227.341,181.069 228.024,181.398 228.654 C 181.726 229.284,181.996 230.104,181.998 230.476 C 181.999 230.848,182.159 231.251,182.352 231.370 C 182.546 231.490,182.794 231.996,182.904 232.494 C 183.014 232.992,183.755 235.188,184.552 237.373 C 185.348 239.558,186.000 241.583,186.000 241.873 C 186.000 242.294,184.146 242.400,176.805 242.400 L 167.611 242.400 167.075 241.100 C 166.780 240.385,166.213 238.810,165.815 237.600 C 165.416 236.390,164.942 235.040,164.760 234.600 C 164.458 233.867,163.068 229.844,160.822 223.200 C 160.338 221.770,159.784 220.240,159.589 219.800 C 159.395 219.360,158.765 217.560,158.190 215.800 C 157.615 214.040,157.039 212.330,156.910 212.000 C 156.781 211.670,156.025 209.510,155.230 207.200 C 154.435 204.890,153.642 202.775,153.469 202.500 C 153.115 201.941,100.186 201.751,99.366 202.306 C 99.127 202.468,98.371 204.220,97.685 206.200 C 96.305 210.188,93.442 218.264,93.077 219.200 C 92.949 219.530,92.304 221.420,91.645 223.400 C 90.986 225.380,89.521 229.610,88.390 232.800 C 87.259 235.990,86.150 239.230,85.925 240.000 C 85.205 242.467,85.488 242.400,75.775 242.400 C 66.555 242.400,66.123 242.320,66.766 240.730 C 66.974 240.218,67.623 238.450,68.209 236.800 C 69.650 232.743,72.410 225.186,72.812 224.200 C 72.991 223.760,73.441 222.500,73.811 221.400 C 74.182 220.300,74.631 219.040,74.810 218.600 C 75.125 217.827,76.072 215.191,78.225 209.100 C 78.789 207.505,79.419 205.887,79.625 205.505 C 79.831 205.123,80.000 204.611,80.000 204.366 C 80.000 204.121,80.258 203.354,80.573 202.660 C 80.888 201.967,81.437 200.500,81.792 199.400 C 82.147 198.300,83.043 195.780,83.783 193.800 C 84.524 191.820,85.584 188.940,86.140 187.400 C 89.834 177.163,91.577 172.373,92.909 168.800 C 93.032 168.470,93.437 167.300,93.809 166.200 C 94.181 165.100,94.631 163.840,94.810 163.400 C 94.989 162.960,95.600 161.295,96.168 159.700 C 96.736 158.105,97.664 155.495,98.232 153.900 C 98.800 152.305,99.408 150.640,99.585 150.200 C 100.540 147.816,102.000 143.736,102.000 143.451 C 102.000 143.269,102.253 142.554,102.561 141.860 C 103.085 140.685,103.527 139.485,106.235 131.900 C 106.805 130.305,107.862 127.380,108.584 125.400 C 109.306 123.420,110.479 120.180,111.192 118.200 C 111.905 116.220,112.634 114.240,112.813 113.800 C 112.992 113.360,113.441 112.100,113.811 111.000 C 114.182 109.900,114.633 108.640,114.814 108.200 C 114.995 107.760,115.526 106.332,115.994 105.026 C 116.461 103.721,116.937 102.502,117.050 102.319 C 117.163 102.135,121.417 102.034,126.502 102.093 L 135.748 102.200 136.408 104.000 M244.020 149.900 C 244.045 206.111,244.139 207.409,248.725 214.600 C 260.708 233.392,291.704 236.145,307.400 219.812 C 312.679 214.318,314.274 211.066,315.567 203.154 C 315.860 201.363,316.000 185.236,316.000 153.254 L 316.000 106.000 324.800 106.000 L 333.600 106.000 333.603 153.700 C 333.604 185.132,333.460 202.491,333.180 204.600 C 331.540 216.941,328.060 224.187,320.323 231.375 C 312.798 238.366,305.420 242.102,293.000 245.213 C 290.257 245.900,274.579 246.204,271.000 245.640 C 266.270 244.894,261.616 243.857,260.200 243.233 C 259.760 243.039,258.770 242.654,258.000 242.378 C 244.459 237.515,233.568 227.094,229.389 215.000 C 226.980 208.031,227.101 210.909,226.925 156.100 L 226.765 106.000 235.383 106.000 L 244.000 106.000 244.020 149.900 M126.000 126.151 C 126.000 126.551,125.742 127.446,125.427 128.140 C 125.112 128.833,124.564 130.300,124.210 131.400 C 123.561 133.416,121.789 138.318,121.173 139.800 C 120.990 140.240,120.554 141.500,120.203 142.600 C 119.571 144.586,117.810 149.467,117.173 151.000 C 116.990 151.440,116.557 152.700,116.211 153.800 C 115.865 154.900,115.420 156.160,115.222 156.600 C 115.024 157.040,114.556 158.300,114.183 159.400 C 113.205 162.277,111.561 166.866,111.173 167.800 C 110.990 168.240,110.554 169.500,110.203 170.600 C 109.555 172.636,107.780 177.549,107.168 179.000 C 106.983 179.440,106.528 180.790,106.158 182.000 C 105.787 183.210,105.330 184.371,105.142 184.580 C 103.890 185.971,104.323 186.000,126.232 186.000 L 147.664 186.000 147.381 184.713 C 147.225 184.005,146.957 183.150,146.785 182.813 C 146.612 182.476,146.171 181.300,145.804 180.200 C 145.438 179.100,144.991 177.840,144.811 177.400 C 144.632 176.960,144.182 175.700,143.811 174.600 C 143.441 173.500,142.985 172.240,142.798 171.800 C 142.610 171.360,142.096 169.920,141.655 168.600 C 141.213 167.280,140.109 164.130,139.200 161.600 C 138.291 159.070,137.187 155.920,136.745 154.600 C 136.304 153.280,135.790 151.840,135.602 151.400 C 135.415 150.960,134.959 149.700,134.589 148.600 C 134.218 147.500,133.763 146.240,133.577 145.800 C 133.391 145.360,132.762 143.560,132.179 141.800 C 131.597 140.040,130.977 138.240,130.802 137.800 C 130.628 137.360,130.182 136.100,129.811 135.000 C 129.441 133.900,128.987 132.640,128.803 132.200 C 128.619 131.760,128.144 130.410,127.748 129.200 C 126.875 126.532,126.000 125.005,126.000 126.151 M333.508 289.700 L 333.616 298.000 200.008 298.000 L 66.400 298.000 66.400 289.867 C 66.400 285.393,66.520 281.613,66.667 281.466 C 66.814 281.319,126.889 281.244,200.167 281.299 L 333.400 281.400 333.508 289.700 " stroke="none" fill="#fbfbfb" fill-rule="evenodd"></path><path id="path2" d="M226.993 153.000 C 226.993 178.520,227.041 189.019,227.100 176.331 C 227.159 163.643,227.159 142.763,227.100 129.931 C 227.041 117.099,226.993 127.480,226.993 153.000 " stroke="none" fill="#7c7c7c" fill-rule="evenodd"></path><path id="path3" d="M316.095 150.300 C 316.148 174.665,316.237 187.490,316.295 178.800 C 316.569 137.229,316.571 106.000,316.300 106.000 C 316.135 106.000,316.043 125.935,316.095 150.300 M333.394 154.400 C 333.394 181.130,333.442 192.065,333.500 178.700 C 333.558 165.335,333.558 143.465,333.500 130.100 C 333.442 116.735,333.394 127.670,333.394 154.400 M139.029 112.000 C 139.176 112.550,139.464 113.270,139.667 113.600 C 139.925 114.017,139.957 113.895,139.771 113.200 C 139.624 112.650,139.336 111.930,139.133 111.600 C 138.875 111.183,138.843 111.305,139.029 112.000 M110.444 120.044 C 110.198 120.751,110.066 121.400,110.152 121.485 C 110.238 121.571,110.509 121.062,110.756 120.356 C 111.002 119.649,111.134 119.000,111.048 118.915 C 110.962 118.829,110.691 119.338,110.444 120.044 M125.267 127.580 C 125.033 128.251,124.927 128.800,125.031 128.800 C 125.301 128.800,126.056 126.722,125.857 126.524 C 125.767 126.433,125.501 126.908,125.267 127.580 M123.244 133.244 C 122.998 133.951,122.866 134.600,122.952 134.685 C 123.038 134.771,123.309 134.262,123.556 133.556 C 123.802 132.849,123.934 132.200,123.848 132.115 C 123.762 132.029,123.491 132.538,123.244 133.244 M102.379 142.255 C 102.158 142.836,102.052 143.385,102.143 143.476 C 102.233 143.567,102.499 143.092,102.733 142.420 C 103.253 140.928,102.939 140.782,102.379 142.255 M132.229 142.000 C 132.376 142.550,132.664 143.270,132.867 143.600 C 133.125 144.017,133.157 143.895,132.971 143.200 C 132.824 142.650,132.536 141.930,132.333 141.600 C 132.075 141.183,132.043 141.305,132.229 142.000 M119.244 144.444 C 118.998 145.151,118.866 145.800,118.952 145.885 C 119.038 145.971,119.309 145.462,119.556 144.756 C 119.802 144.049,119.934 143.400,119.848 143.315 C 119.762 143.229,119.491 143.738,119.244 144.444 M100.444 147.644 C 100.198 148.351,100.066 149.000,100.152 149.085 C 100.238 149.171,100.509 148.662,100.756 147.956 C 101.002 147.249,101.134 146.600,101.048 146.515 C 100.962 146.429,100.691 146.938,100.444 147.644 M134.229 147.600 C 134.376 148.150,134.664 148.870,134.867 149.200 C 135.125 149.617,135.157 149.495,134.971 148.800 C 134.824 148.250,134.536 147.530,134.333 147.200 C 134.075 146.783,134.043 146.905,134.229 147.600 M153.029 150.800 C 153.176 151.350,153.464 152.070,153.667 152.400 C 153.925 152.817,153.957 152.695,153.771 152.000 C 153.624 151.450,153.336 150.730,153.133 150.400 C 152.875 149.983,152.843 150.105,153.029 150.800 M115.267 155.580 C 115.033 156.251,114.927 156.800,115.031 156.800 C 115.301 156.800,116.056 154.722,115.857 154.524 C 115.767 154.433,115.501 154.908,115.267 155.580 M109.244 172.444 C 108.998 173.151,108.866 173.800,108.952 173.885 C 109.038 173.971,109.309 173.462,109.556 172.756 C 109.802 172.049,109.934 171.400,109.848 171.315 C 109.762 171.229,109.491 171.738,109.244 172.444 M90.444 175.244 C 90.198 175.951,90.066 176.600,90.152 176.685 C 90.238 176.771,90.509 176.262,90.756 175.556 C 91.002 174.849,91.134 174.200,91.048 174.115 C 90.962 174.029,90.691 174.538,90.444 175.244 M105.267 183.580 C 105.033 184.251,104.927 184.800,105.031 184.800 C 105.301 184.800,106.056 182.722,105.857 182.524 C 105.767 182.433,105.501 182.908,105.267 183.580 M147.600 185.533 C 147.600 185.882,142.159 186.024,126.100 186.096 L 104.600 186.193 125.976 186.300 C 146.141 186.401,148.817 186.284,147.873 185.340 C 147.723 185.190,147.600 185.277,147.600 185.533 M167.267 190.420 C 167.501 191.092,167.767 191.567,167.857 191.476 C 168.056 191.278,167.301 189.200,167.031 189.200 C 166.927 189.200,167.033 189.749,167.267 190.420 M169.029 195.200 C 169.176 195.750,169.464 196.470,169.667 196.800 C 169.925 197.217,169.957 197.095,169.771 196.400 C 169.624 195.850,169.336 195.130,169.133 194.800 C 168.875 194.383,168.843 194.505,169.029 195.200 M244.124 197.400 C 244.126 198.720,244.201 199.212,244.290 198.493 C 244.379 197.774,244.377 196.694,244.286 196.093 C 244.195 195.492,244.122 196.080,244.124 197.400 M82.444 197.244 C 82.198 197.951,82.066 198.600,82.152 198.685 C 82.238 198.771,82.509 198.262,82.756 197.556 C 83.002 196.849,83.134 196.200,83.048 196.115 C 82.962 196.029,82.691 196.538,82.444 197.244 M226.901 200.600 C 226.905 201.480,226.987 201.793,227.083 201.295 C 227.179 200.798,227.175 200.078,227.075 199.695 C 226.975 199.313,226.896 199.720,226.901 200.600 M244.509 201.600 C 244.509 202.590,244.587 202.995,244.682 202.500 C 244.778 202.005,244.778 201.195,244.682 200.700 C 244.587 200.205,244.509 200.610,244.509 201.600 M80.379 203.055 C 80.158 203.636,80.052 204.185,80.143 204.276 C 80.233 204.367,80.499 203.892,80.733 203.220 C 81.253 201.728,80.939 201.582,80.379 203.055 M227.287 205.600 C 227.283 206.150,227.424 207.050,227.600 207.600 C 228.031 208.944,228.031 207.492,227.600 205.800 C 227.326 204.722,227.294 204.702,227.287 205.600 M244.868 205.600 C 244.888 206.639,245.518 208.346,245.532 207.400 C 245.538 206.960,245.389 206.240,245.200 205.800 C 244.989 205.310,244.861 205.232,244.868 205.600 M332.250 208.850 C 332.109 209.553,332.069 210.202,332.159 210.292 C 332.250 210.383,332.448 209.891,332.600 209.200 C 332.752 208.509,332.793 207.859,332.691 207.758 C 332.589 207.656,332.391 208.147,332.250 208.850 M228.406 211.833 C 228.409 212.255,228.595 212.870,228.818 213.200 C 229.115 213.638,229.152 213.476,228.956 212.600 C 228.627 211.129,228.398 210.810,228.406 211.833 M158.229 216.000 C 158.376 216.550,158.664 217.270,158.867 217.600 C 159.125 218.017,159.157 217.895,158.971 217.200 C 158.824 216.650,158.536 215.930,158.333 215.600 C 158.075 215.183,158.043 215.305,158.229 216.000 M249.164 215.933 C 249.380 216.336,249.871 216.921,250.255 217.233 C 250.687 217.584,250.590 217.304,250.001 216.500 C 248.951 215.065,248.557 214.798,249.164 215.933 M179.029 222.800 C 179.176 223.350,179.464 224.070,179.667 224.400 C 179.925 224.817,179.957 224.695,179.771 224.000 C 179.624 223.450,179.336 222.730,179.133 222.400 C 178.875 221.983,178.843 222.105,179.029 222.800 M255.876 222.844 C 256.358 223.370,257.348 224.143,258.076 224.562 C 259.741 225.521,259.517 225.277,257.000 223.388 C 255.822 222.505,255.360 222.281,255.876 222.844 M322.975 228.500 L 321.800 229.800 323.100 228.625 C 323.815 227.979,324.400 227.394,324.400 227.325 C 324.400 227.016,324.070 227.288,322.975 228.500 M181.267 229.220 C 181.501 229.892,181.767 230.367,181.857 230.276 C 182.056 230.078,181.301 228.000,181.031 228.000 C 180.927 228.000,181.033 228.549,181.267 229.220 M70.444 230.444 C 70.198 231.151,70.066 231.800,70.152 231.885 C 70.238 231.971,70.509 231.462,70.756 230.756 C 71.002 230.049,71.134 229.400,71.048 229.315 C 70.962 229.229,70.691 229.738,70.444 230.444 M269.800 229.600 C 270.240 229.789,270.870 229.944,271.200 229.944 C 271.578 229.944,271.504 229.817,271.000 229.600 C 270.560 229.411,269.930 229.256,269.600 229.256 C 269.222 229.256,269.296 229.383,269.800 229.600 M289.400 229.600 C 288.896 229.817,288.822 229.944,289.200 229.944 C 289.530 229.944,290.160 229.789,290.600 229.600 C 291.104 229.383,291.178 229.256,290.800 229.256 C 290.470 229.256,289.840 229.411,289.400 229.600 M277.500 230.696 C 278.875 230.774,281.125 230.774,282.500 230.696 C 283.875 230.618,282.750 230.554,280.000 230.554 C 277.250 230.554,276.125 230.618,277.500 230.696 M164.218 233.300 C 164.368 233.795,164.655 234.376,164.856 234.591 C 165.057 234.806,165.019 234.401,164.772 233.691 C 164.265 232.238,163.797 231.908,164.218 233.300 M242.000 232.933 C 242.000 233.043,242.720 233.703,243.600 234.400 C 244.480 235.097,245.200 235.577,245.200 235.467 C 245.200 235.357,244.480 234.697,243.600 234.000 C 242.720 233.303,242.000 232.823,242.000 232.933 M183.029 234.000 C 183.176 234.550,183.464 235.270,183.667 235.600 C 183.925 236.017,183.957 235.895,183.771 235.200 C 183.624 234.650,183.336 233.930,183.133 233.600 C 182.875 233.183,182.843 233.305,183.029 234.000 M85.062 241.383 C 84.775 242.131,67.031 242.331,66.663 241.590 C 66.551 241.365,66.506 241.410,66.563 241.690 C 66.732 242.527,84.512 242.629,85.202 241.798 C 85.484 241.458,85.621 241.087,85.506 240.973 C 85.392 240.859,85.192 241.043,85.062 241.383 M167.547 242.108 C 167.717 242.277,171.983 242.367,177.028 242.307 L 186.200 242.199 176.719 241.999 C 171.505 241.890,167.377 241.938,167.547 242.108 M260.227 243.155 C 260.652 243.544,263.129 244.196,262.754 243.820 C 262.619 243.686,261.911 243.404,261.181 243.195 C 260.451 242.985,260.022 242.968,260.227 243.155 M269.300 245.476 C 269.685 245.576,270.315 245.576,270.700 245.476 C 271.085 245.375,270.770 245.293,270.000 245.293 C 269.230 245.293,268.915 245.375,269.300 245.476 M290.100 245.476 C 290.485 245.576,291.115 245.576,291.500 245.476 C 291.885 245.375,291.570 245.293,290.800 245.293 C 290.030 245.293,289.715 245.375,290.100 245.476 M66.579 281.711 C 66.471 281.992,66.435 285.817,66.500 290.211 L 66.618 298.200 66.709 289.900 L 66.800 281.600 199.992 281.600 L 333.184 281.600 333.304 289.800 L 333.425 298.001 333.412 289.700 L 333.400 281.400 200.088 281.299 C 92.084 281.218,66.738 281.296,66.579 281.711 " stroke="none" fill="#8c8c8c" fill-rule="evenodd"></path><path id="path4" d="M117.280 102.480 C 117.016 102.744,116.805 103.149,116.812 103.380 C 116.819 103.611,117.008 103.485,117.232 103.100 C 117.601 102.467,118.479 102.400,126.400 102.400 C 134.321 102.400,135.199 102.467,135.568 103.100 C 135.792 103.485,135.981 103.611,135.988 103.380 C 136.023 102.153,134.963 102.000,126.400 102.000 C 120.213 102.000,117.624 102.136,117.280 102.480 M227.462 106.300 C 227.360 106.465,231.022 106.600,235.600 106.600 C 240.178 106.600,243.840 106.465,243.738 106.300 C 243.636 106.135,239.974 106.000,235.600 106.000 C 231.226 106.000,227.564 106.135,227.462 106.300 M316.597 106.500 C 316.499 106.775,316.370 127.970,316.309 153.600 C 316.249 179.230,316.311 198.850,316.448 197.200 C 316.584 195.550,316.719 174.449,316.748 150.308 L 316.800 106.416 325.100 106.300 L 333.400 106.183 325.087 106.091 C 318.732 106.022,316.733 106.118,316.597 106.500 M115.267 107.580 C 115.033 108.251,114.927 108.800,115.031 108.800 C 115.301 108.800,116.056 106.722,115.857 106.524 C 115.767 106.433,115.501 106.908,115.267 107.580 M107.267 129.580 C 107.033 130.251,106.927 130.800,107.031 130.800 C 107.301 130.800,108.056 128.722,107.857 128.524 C 107.767 128.433,107.501 128.908,107.267 129.580 M143.267 172.420 C 143.501 173.092,143.767 173.567,143.857 173.476 C 144.056 173.278,143.301 171.200,143.031 171.200 C 142.927 171.200,143.033 171.749,143.267 172.420 M162.218 177.300 C 162.368 177.795,162.655 178.376,162.856 178.591 C 163.057 178.806,163.019 178.401,162.772 177.691 C 162.265 176.238,161.797 175.908,162.218 177.300 M104.534 185.600 L 104.600 186.600 126.200 186.605 L 147.800 186.610 126.327 186.502 L 104.855 186.393 104.662 185.497 C 104.493 184.712,104.477 184.725,104.534 185.600 M85.244 190.444 C 84.998 191.151,84.866 191.800,84.952 191.885 C 85.038 191.971,85.309 191.462,85.556 190.756 C 85.802 190.049,85.934 189.400,85.848 189.315 C 85.762 189.229,85.491 189.738,85.244 190.444 M227.328 202.000 C 227.328 203.430,227.401 204.015,227.489 203.300 C 227.578 202.585,227.578 201.415,227.489 200.700 C 227.401 199.985,227.328 200.570,227.328 202.000 M244.093 201.200 C 244.093 201.970,244.175 202.285,244.276 201.900 C 244.376 201.515,244.376 200.885,244.276 200.500 C 244.175 200.115,244.093 200.430,244.093 201.200 M332.901 201.400 C 332.905 202.280,332.987 202.593,333.083 202.095 C 333.179 201.598,333.175 200.878,333.075 200.495 C 332.975 200.113,332.896 200.520,332.901 201.400 M244.493 204.800 C 244.493 205.570,244.575 205.885,244.676 205.500 C 244.776 205.115,244.776 204.485,244.676 204.100 C 244.575 203.715,244.493 204.030,244.493 204.800 M332.509 205.600 C 332.509 206.590,332.587 206.995,332.682 206.500 C 332.778 206.005,332.778 205.195,332.682 204.700 C 332.587 204.205,332.509 204.610,332.509 205.600 M315.254 206.267 C 315.225 206.744,315.096 207.464,314.970 207.867 C 314.752 208.561,314.764 208.562,315.196 207.888 C 315.447 207.497,315.575 206.777,315.481 206.288 C 315.309 205.401,315.309 205.401,315.254 206.267 M228.056 208.800 C 228.056 209.130,228.211 209.760,228.400 210.200 C 228.617 210.704,228.744 210.778,228.744 210.400 C 228.744 210.070,228.589 209.440,228.400 209.000 C 228.183 208.496,228.056 208.422,228.056 208.800 M176.218 216.100 C 176.368 216.595,176.655 217.176,176.856 217.391 C 177.057 217.606,177.019 217.201,176.772 216.491 C 176.265 215.038,175.797 214.708,176.218 216.100 M325.623 224.700 C 324.891 225.745,324.631 226.297,325.046 225.927 C 325.771 225.280,327.399 222.800,327.100 222.800 C 327.020 222.800,326.355 223.655,325.623 224.700 M239.000 230.000 C 240.306 231.320,241.465 232.400,241.575 232.400 C 241.685 232.400,240.706 231.320,239.400 230.000 C 238.094 228.680,236.935 227.600,236.825 227.600 C 236.715 227.600,237.694 228.680,239.000 230.000 M272.200 230.390 C 272.964 230.728,275.514 230.957,275.167 230.656 C 275.075 230.576,274.190 230.404,273.200 230.273 C 271.998 230.114,271.666 230.153,272.200 230.390 M319.375 231.700 L 318.200 233.000 319.500 231.825 C 320.215 231.179,320.800 230.594,320.800 230.525 C 320.800 230.216,320.470 230.488,319.375 231.700 M279.107 231.090 C 279.826 231.179,280.906 231.177,281.507 231.086 C 282.108 230.995,281.520 230.922,280.200 230.924 C 278.880 230.926,278.388 231.001,279.107 231.090 M315.322 235.029 L 314.200 236.058 315.500 235.154 C 316.215 234.657,316.800 234.193,316.800 234.125 C 316.800 233.809,316.358 234.080,315.322 235.029 M272.100 245.476 C 272.485 245.576,273.115 245.576,273.500 245.476 C 273.885 245.375,273.570 245.293,272.800 245.293 C 272.030 245.293,271.715 245.375,272.100 245.476 M287.300 245.476 C 287.685 245.576,288.315 245.576,288.700 245.476 C 289.085 245.375,288.770 245.293,288.000 245.293 C 287.230 245.293,286.915 245.375,287.300 245.476 M274.900 245.876 C 275.285 245.976,275.915 245.976,276.300 245.876 C 276.685 245.775,276.370 245.693,275.600 245.693 C 274.830 245.693,274.515 245.775,274.900 245.876 M284.305 245.883 C 284.802 245.979,285.522 245.975,285.905 245.875 C 286.287 245.775,285.880 245.696,285.000 245.701 C 284.120 245.705,283.807 245.787,284.305 245.883 M133.300 281.900 C 169.985 281.956,230.015 281.956,266.700 281.900 C 303.385 281.844,273.370 281.798,200.000 281.798 C 126.630 281.798,96.615 281.844,133.300 281.900 M133.300 297.900 C 169.985 297.956,230.015 297.956,266.700 297.900 C 303.385 297.844,273.370 297.798,200.000 297.798 C 126.630 297.798,96.615 297.844,133.300 297.900 " stroke="none" fill="#747474" fill-rule="evenodd"></path></g></svg>