<svg id="svg" version="1.1" xmlns="http://www.w3.org/2000/svg" xmlns:xlink="http://www.w3.org/1999/xlink" width="400" height="400" viewBox="0, 0, 400,400"><path d="M116.789 104.225 C 116.355 105.238,116.000 106.249,116.000 106.473 C 116.000 106.696,115.747 107.446,115.439 108.140 C 114.915 109.315,114.473 110.515,111.765 118.100 C 111.195 119.695,110.115 122.629,109.365 124.620 C 108.614 126.611,108.000 128.384,108.000 128.559 C 108.000 128.735,107.747 129.446,107.438 130.140 C 107.128 130.833,106.569 132.300,106.195 133.400 C 105.821 134.500,105.369 135.760,105.190 136.200 C 105.011 136.640,104.400 138.305,103.832 139.900 C 102.754 142.930,101.513 146.407,99.763 151.300 C 98.185 155.713,95.554 162.901,95.188 163.800 C 95.009 164.240,94.559 165.500,94.189 166.600 C 93.818 167.700,93.369 168.960,93.190 169.400 C 92.875 170.173,91.928 172.809,89.775 178.900 C 89.211 180.495,88.581 182.113,88.375 182.495 C 88.169 182.877,88.000 183.389,88.000 183.634 C 88.000 183.879,87.742 184.646,87.427 185.340 C 87.112 186.033,86.563 187.500,86.208 188.600 C 85.853 189.700,84.957 192.220,84.217 194.200 C 83.476 196.180,82.416 199.060,81.860 200.600 C 78.166 210.837,76.423 215.627,75.091 219.200 C 74.968 219.530,74.563 220.700,74.191 221.800 C 73.819 222.900,73.369 224.160,73.190 224.600 C 73.011 225.040,72.400 226.705,71.832 228.300 C 71.264 229.895,70.336 232.505,69.768 234.100 C 69.200 235.695,68.585 237.360,68.401 237.800 C 67.918 238.952,67.200 241.261,67.200 241.660 C 67.200 241.847,71.048 242.000,75.751 242.000 C 84.688 242.000,84.810 241.977,85.309 240.200 C 85.487 239.567,87.720 233.238,88.909 230.000 C 89.030 229.670,89.676 227.780,90.343 225.800 C 91.011 223.820,92.474 219.590,93.595 216.400 C 94.715 213.210,96.290 208.665,97.094 206.300 L 98.557 202.000 126.230 202.000 L 153.903 202.000 154.331 203.100 C 154.567 203.705,155.230 205.640,155.805 207.400 C 156.379 209.160,157.006 210.960,157.196 211.400 C 157.387 211.840,157.907 213.280,158.351 214.600 C 158.796 215.920,160.075 219.610,161.193 222.800 C 162.311 225.990,163.848 230.400,164.608 232.600 C 165.368 234.800,166.414 237.770,166.932 239.200 L 167.875 241.800 176.537 241.908 C 186.505 242.032,185.849 242.374,184.200 237.908 C 183.650 236.419,182.750 233.940,182.200 232.400 C 181.650 230.860,180.750 228.340,180.200 226.800 C 179.650 225.260,178.736 222.695,178.168 221.100 C 177.600 219.505,176.974 217.840,176.777 217.400 C 176.580 216.960,176.135 215.700,175.789 214.600 C 175.443 213.500,175.009 212.240,174.824 211.800 C 174.639 211.360,173.908 209.380,173.200 207.400 C 172.492 205.420,171.766 203.440,171.587 203.000 C 171.408 202.560,170.959 201.300,170.589 200.200 C 170.218 199.100,169.769 197.840,169.590 197.400 C 169.411 196.960,168.800 195.295,168.232 193.700 C 167.664 192.105,166.750 189.540,166.200 188.000 C 165.650 186.460,164.736 183.895,164.168 182.300 C 163.600 180.705,162.974 179.040,162.777 178.600 C 162.580 178.160,162.134 176.900,161.786 175.800 C 161.438 174.700,161.049 173.530,160.920 173.200 C 160.234 171.443,158.732 167.319,157.422 163.600 C 156.608 161.290,155.790 159.040,155.603 158.600 C 155.417 158.160,154.800 156.495,154.232 154.900 C 153.664 153.305,152.736 150.695,152.168 149.100 C 151.600 147.505,150.983 145.840,150.797 145.400 C 150.610 144.960,150.069 143.430,149.595 142.000 C 149.120 140.570,148.197 137.960,147.542 136.200 C 146.887 134.440,145.799 131.470,145.124 129.600 C 144.449 127.730,143.306 124.580,142.584 122.600 C 141.355 119.232,140.810 117.713,138.166 110.300 C 137.597 108.705,137.028 107.130,136.901 106.800 C 136.774 106.470,136.385 105.390,136.035 104.400 L 135.400 102.600 126.489 102.492 L 117.578 102.385 116.789 104.225 M227.475 106.659 C 227.042 107.091,227.163 197.184,227.603 202.600 C 228.351 211.801,230.896 219.423,235.173 225.270 C 239.913 231.749,251.699 240.180,258.800 242.170 C 259.350 242.324,260.160 242.598,260.600 242.780 C 265.808 244.923,277.989 246.355,284.943 245.641 C 298.364 244.263,305.854 241.577,316.000 234.504 C 322.001 230.321,327.853 222.708,330.069 216.200 C 333.131 207.209,333.200 205.795,333.200 152.357 L 333.200 106.400 325.000 106.400 L 316.800 106.400 316.795 149.700 C 316.789 203.558,316.650 205.936,313.093 213.200 C 311.953 215.528,306.104 222.021,303.066 224.331 C 293.799 231.377,276.373 233.088,264.400 228.126 C 261.782 227.041,261.002 226.631,258.400 224.972 C 252.574 221.256,247.284 214.873,245.661 209.600 C 245.424 208.830,245.000 207.570,244.718 206.800 C 244.317 205.702,244.162 194.737,244.003 156.000 L 243.800 106.600 235.775 106.492 C 231.361 106.433,227.626 106.508,227.475 106.659 M126.912 125.500 C 127.026 125.885,127.873 128.270,128.796 130.800 C 129.719 133.330,130.621 135.850,130.800 136.400 C 130.979 136.950,131.879 139.470,132.800 142.000 C 133.721 144.530,134.623 147.050,134.804 147.600 C 134.985 148.150,136.064 151.210,137.202 154.400 C 139.702 161.412,140.962 165.017,142.026 168.200 C 142.467 169.520,142.997 170.960,143.205 171.400 C 143.412 171.840,143.865 173.100,144.211 174.200 C 144.557 175.300,144.996 176.560,145.186 177.000 C 145.376 177.440,145.854 178.790,146.249 180.000 C 146.643 181.210,147.108 182.398,147.282 182.640 C 147.456 182.883,147.714 183.918,147.854 184.940 L 148.109 186.800 126.442 186.800 C 107.936 186.800,104.743 186.716,104.553 186.223 C 104.366 185.733,105.678 181.283,106.801 178.600 C 106.985 178.160,107.600 176.495,108.168 174.900 C 108.736 173.305,109.650 170.740,110.200 169.200 C 110.750 167.660,111.650 165.140,112.200 163.600 C 112.750 162.060,113.650 159.540,114.200 158.000 C 114.750 156.460,115.650 153.940,116.200 152.400 C 116.750 150.860,117.650 148.340,118.200 146.800 C 118.750 145.260,119.650 142.740,120.200 141.200 C 120.750 139.660,121.650 137.140,122.200 135.600 C 122.750 134.060,123.665 131.495,124.233 129.900 C 125.896 125.236,126.081 124.800,126.402 124.800 C 126.570 124.800,126.799 125.115,126.912 125.500 M66.800 289.800 L 66.800 297.600 200.000 297.600 L 333.200 297.600 333.200 289.800 L 333.200 282.000 200.000 282.000 L 66.800 282.000 66.800 289.800 " stroke="none" fill="#050505" fill-rule="evenodd"></path></svg>